STARTFONT 2.1
COMMENT
COMMENT  Copyright (c) 2008, Your Name Here
COMMENT
COMMENT  License to copy and distribute for both commercial and
COMMENT  non-commercial use is herby granted, provided this notice
COMMENT  is preserved.
COMMENT
COMMENT  yourEmail@your.Domain
COMMENT  http://web.server/YourWebPageIfYouHaveOne/
COMMENT  Whatever else you want to put here
COMMENT
COMMENT  Produced with bdfedit, a tcl/tk font editing program
COMMENT  written by Thomas A. Fine
FONT viii-bold
SIZE 8 72 72
FONTBOUNDINGBOX 6 11 0 -2
STARTPROPERTIES 11
FOUNDRY "iv"
FAMILY_NAME "viii"
WEIGHT_NAME "Bold"
SLANT "R"
SETWIDTH_NAME "Normal"
SPACING "c"
CHARSET_REGISTRY "ISO-8859"
CHARSET_ENCODING "1"
COPYRIGHT "Designer of this font retains full rights under the law"
FONT_ASCENT  9
FONT_DESCENT 2
ENDPROPERTIES
CHARS 193
STARTCHAR C020
ENCODING 16
SWIDTH 750 0
DWIDTH 6 0
BBX 0 0 0 0
BITMAP
ENDCHAR
STARTCHAR C040
ENCODING 32
SWIDTH 750 0
DWIDTH 6 0
BBX 0 0 0 0
BITMAP
ENDCHAR
STARTCHAR C041
ENCODING 33
SWIDTH 750 0
DWIDTH 6 0
BBX 2 7 1 0
BITMAP
c0
c0
c0
c0
c0
00
c0
ENDCHAR
STARTCHAR C042
ENCODING 34
SWIDTH 750 0
DWIDTH 6 0
BBX 5 4 0 4
BITMAP
d8
d8
d8
50
ENDCHAR
STARTCHAR C043
ENCODING 35
SWIDTH 750 0
DWIDTH 6 0
BBX 5 7 0 0
BITMAP
68
68
f8
50
f8
b0
b0
ENDCHAR
STARTCHAR C044
ENCODING 36
SWIDTH 750 0
DWIDTH 6 0
BBX 5 9 0 -1
BITMAP
20
70
d8
c0
70
18
d8
70
20
ENDCHAR
STARTCHAR C045
ENCODING 37
SWIDTH 750 0
DWIDTH 6 0
BBX 5 7 0 0
BITMAP
e0
b8
f8
20
f8
e8
38
ENDCHAR
STARTCHAR C046
ENCODING 38
SWIDTH 750 0
DWIDTH 6 0
BBX 5 7 0 0
BITMAP
60
d0
d0
68
d8
d0
78
ENDCHAR
STARTCHAR C047
ENCODING 39
SWIDTH 750 0
DWIDTH 6 0
BBX 3 4 1 4
BITMAP
e0
e0
e0
40
ENDCHAR
STARTCHAR C050
ENCODING 40
SWIDTH 750 0
DWIDTH 6 0
BBX 3 9 1 -1
BITMAP
20
60
c0
c0
c0
c0
c0
60
20
ENDCHAR
STARTCHAR C051
ENCODING 41
SWIDTH 750 0
DWIDTH 6 0
BBX 3 9 1 -1
BITMAP
80
c0
60
60
60
60
60
c0
80
ENDCHAR
STARTCHAR C052
ENCODING 42
SWIDTH 750 0
DWIDTH 6 0
BBX 5 5 0 3
BITMAP
20
f8
70
f8
20
ENDCHAR
STARTCHAR C053
ENCODING 43
SWIDTH 750 0
DWIDTH 6 0
BBX 5 5 0 1
BITMAP
20
20
f8
20
20
ENDCHAR
STARTCHAR C054
ENCODING 44
SWIDTH 750 0
DWIDTH 6 0
BBX 3 4 1 -2
BITMAP
e0
e0
60
c0
ENDCHAR
STARTCHAR C055
ENCODING 45
SWIDTH 750 0
DWIDTH 6 0
BBX 5 1 0 3
BITMAP
f8
ENDCHAR
STARTCHAR C056
ENCODING 46
SWIDTH 750 0
DWIDTH 6 0
BBX 3 2 1 0
BITMAP
e0
e0
ENDCHAR
STARTCHAR C057
ENCODING 47
SWIDTH 750 0
DWIDTH 6 0
BBX 5 7 0 0
BITMAP
18
18
38
70
e0
c0
c0
ENDCHAR
STARTCHAR C060
ENCODING 48
SWIDTH 750 0
DWIDTH 6 0
BBX 5 7 0 0
BITMAP
70
d8
d8
f8
d8
d8
70
ENDCHAR
STARTCHAR C061
ENCODING 49
SWIDTH 750 0
DWIDTH 6 0
BBX 3 7 1 0
BITMAP
60
e0
60
60
60
60
20
ENDCHAR
STARTCHAR C062
ENCODING 50
SWIDTH 750 0
DWIDTH 6 0
BBX 5 7 0 0
BITMAP
70
d8
18
30
60
c8
f8
ENDCHAR
STARTCHAR C063
ENCODING 51
SWIDTH 750 0
DWIDTH 6 0
BBX 5 7 0 0
BITMAP
70
d8
18
70
18
d8
70
ENDCHAR
STARTCHAR C064
ENCODING 52
SWIDTH 750 0
DWIDTH 6 0
BBX 5 7 0 0
BITMAP
10
30
70
b0
f8
30
30
ENDCHAR
STARTCHAR C065
ENCODING 53
SWIDTH 750 0
DWIDTH 6 0
BBX 5 7 0 0
BITMAP
f8
d8
c0
f0
18
d8
70
ENDCHAR
STARTCHAR C066
ENCODING 54
SWIDTH 750 0
DWIDTH 6 0
BBX 5 7 0 0
BITMAP
70
c0
c0
f0
d8
d8
70
ENDCHAR
STARTCHAR C067
ENCODING 55
SWIDTH 750 0
DWIDTH 6 0
BBX 5 7 0 0
BITMAP
f8
d8
18
30
60
60
60
ENDCHAR
STARTCHAR C070
ENCODING 56
SWIDTH 750 0
DWIDTH 6 0
BBX 5 7 0 0
BITMAP
70
d8
d8
70
d8
d8
70
ENDCHAR
STARTCHAR C071
ENCODING 57
SWIDTH 750 0
DWIDTH 6 0
BBX 5 7 0 0
BITMAP
70
d8
d8
78
18
d8
70
ENDCHAR
STARTCHAR C072
ENCODING 58
SWIDTH 750 0
DWIDTH 6 0
BBX 3 5 1 0
BITMAP
e0
e0
00
e0
e0
ENDCHAR
STARTCHAR C073
ENCODING 59
SWIDTH 750 0
DWIDTH 6 0
BBX 3 7 1 -2
BITMAP
e0
e0
00
e0
e0
60
c0
ENDCHAR
STARTCHAR C074
ENCODING 60
SWIDTH 750 0
DWIDTH 6 0
BBX 4 7 0 0
BITMAP
10
30
60
c0
60
30
10
ENDCHAR
STARTCHAR C075
ENCODING 61
SWIDTH 750 0
DWIDTH 6 0
BBX 5 3 0 2
BITMAP
f8
00
f8
ENDCHAR
STARTCHAR C076
ENCODING 62
SWIDTH 750 0
DWIDTH 6 0
BBX 4 7 0 0
BITMAP
80
c0
60
30
60
c0
80
ENDCHAR
STARTCHAR C077
ENCODING 63
SWIDTH 750 0
DWIDTH 6 0
BBX 5 7 0 0
BITMAP
70
d8
d8
30
60
00
60
ENDCHAR
STARTCHAR C100
ENCODING 64
SWIDTH 750 0
DWIDTH 6 0
BBX 5 7 0 0
BITMAP
70
88
b8
b8
b8
b8
f8
ENDCHAR
STARTCHAR C101
ENCODING 65
SWIDTH 750 0
DWIDTH 6 0
BBX 5 7 0 0
BITMAP
70
f8
d8
d8
f8
d8
d8
ENDCHAR
STARTCHAR C102
ENCODING 66
SWIDTH 750 0
DWIDTH 6 0
BBX 5 7 0 0
BITMAP
70
d8
d8
f0
d8
d8
f0
ENDCHAR
STARTCHAR C103
ENCODING 67
SWIDTH 750 0
DWIDTH 6 0
BBX 5 7 0 0
BITMAP
78
d8
c0
c0
c8
d8
70
ENDCHAR
STARTCHAR C104
ENCODING 68
SWIDTH 750 0
DWIDTH 6 0
BBX 5 7 0 0
BITMAP
f0
d8
d8
d8
d8
d8
f0
ENDCHAR
STARTCHAR C105
ENCODING 69
SWIDTH 750 0
DWIDTH 6 0
BBX 5 7 0 0
BITMAP
78
d8
c0
f0
c0
c8
f8
ENDCHAR
STARTCHAR C106
ENCODING 70
SWIDTH 750 0
DWIDTH 6 0
BBX 5 7 0 0
BITMAP
78
d8
c0
f0
c0
c0
e0
ENDCHAR
STARTCHAR C107
ENCODING 71
SWIDTH 750 0
DWIDTH 6 0
BBX 5 7 0 0
BITMAP
70
d8
c0
d8
d8
d8
68
ENDCHAR
STARTCHAR C110
ENCODING 72
SWIDTH 750 0
DWIDTH 6 0
BBX 5 7 0 0
BITMAP
d8
d8
d8
f8
d8
d8
d8
ENDCHAR
STARTCHAR C111
ENCODING 73
SWIDTH 750 0
DWIDTH 6 0
BBX 5 7 0 0
BITMAP
f8
60
60
60
60
60
f8
ENDCHAR
STARTCHAR C112
ENCODING 74
SWIDTH 750 0
DWIDTH 6 0
BBX 5 7 0 0
BITMAP
f8
d8
18
18
98
d8
70
ENDCHAR
STARTCHAR C113
ENCODING 75
SWIDTH 750 0
DWIDTH 6 0
BBX 5 7 0 0
BITMAP
d8
d8
f0
e0
f0
d8
d8
ENDCHAR
STARTCHAR C114
ENCODING 76
SWIDTH 750 0
DWIDTH 6 0
BBX 5 7 0 0
BITMAP
c0
c0
c0
c0
c0
d8
f8
ENDCHAR
STARTCHAR C115
ENCODING 77
SWIDTH 750 0
DWIDTH 6 0
BBX 5 7 0 0
BITMAP
d8
f8
f8
f8
d8
d8
d8
ENDCHAR
STARTCHAR C116
ENCODING 78
SWIDTH 750 0
DWIDTH 6 0
BBX 5 7 0 0
BITMAP
d8
d8
e8
f8
b8
d8
d8
ENDCHAR
STARTCHAR C117
ENCODING 79
SWIDTH 750 0
DWIDTH 6 0
BBX 5 7 0 0
BITMAP
70
d8
d8
d8
d8
d8
70
ENDCHAR
STARTCHAR C120
ENCODING 80
SWIDTH 750 0
DWIDTH 6 0
BBX 5 7 0 0
BITMAP
70
d8
d8
f0
c0
c0
c0
ENDCHAR
STARTCHAR C121
ENCODING 81
SWIDTH 750 0
DWIDTH 6 0
BBX 5 8 0 -1
BITMAP
70
d8
d8
d8
d8
d8
70
38
ENDCHAR
STARTCHAR C122
ENCODING 82
SWIDTH 750 0
DWIDTH 6 0
BBX 5 7 0 0
BITMAP
f0
d8
d8
f0
d8
d8
d8
ENDCHAR
STARTCHAR C123
ENCODING 83
SWIDTH 750 0
DWIDTH 6 0
BBX 5 7 0 0
BITMAP
78
d8
e0
70
38
d8
70
ENDCHAR
STARTCHAR C124
ENCODING 84
SWIDTH 750 0
DWIDTH 6 0
BBX 5 7 0 0
BITMAP
f8
60
60
60
60
60
30
ENDCHAR
STARTCHAR C125
ENCODING 85
SWIDTH 750 0
DWIDTH 6 0
BBX 5 7 0 0
BITMAP
d8
d8
d8
d8
d8
d8
70
ENDCHAR
STARTCHAR C126
ENCODING 86
SWIDTH 750 0
DWIDTH 6 0
BBX 5 7 0 0
BITMAP
d8
d8
d8
d8
d8
70
20
ENDCHAR
STARTCHAR C127
ENCODING 87
SWIDTH 750 0
DWIDTH 6 0
BBX 5 7 0 0
BITMAP
d8
d8
d8
f8
f8
50
50
ENDCHAR
STARTCHAR C130
ENCODING 88
SWIDTH 750 0
DWIDTH 6 0
BBX 5 7 0 0
BITMAP
d8
d8
70
20
70
d8
d8
ENDCHAR
STARTCHAR C131
ENCODING 89
SWIDTH 750 0
DWIDTH 6 0
BBX 5 7 0 0
BITMAP
d8
d8
d0
60
60
60
30
ENDCHAR
STARTCHAR C132
ENCODING 90
SWIDTH 750 0
DWIDTH 6 0
BBX 5 7 0 0
BITMAP
78
d8
30
20
60
d8
f0
ENDCHAR
STARTCHAR C133
ENCODING 91
SWIDTH 750 0
DWIDTH 6 0
BBX 3 9 1 -1
BITMAP
e0
c0
c0
c0
c0
c0
c0
c0
e0
ENDCHAR
STARTCHAR C134
ENCODING 92
SWIDTH 750 0
DWIDTH 6 0
BBX 5 7 0 0
BITMAP
c0
c0
e0
70
38
18
18
ENDCHAR
STARTCHAR C135
ENCODING 93
SWIDTH 750 0
DWIDTH 6 0
BBX 3 9 1 -1
BITMAP
e0
60
60
60
60
60
60
60
e0
ENDCHAR
STARTCHAR C136
ENCODING 94
SWIDTH 750 0
DWIDTH 6 0
BBX 5 4 0 4
BITMAP
20
70
d8
d8
ENDCHAR
STARTCHAR C137
ENCODING 95
SWIDTH 750 0
DWIDTH 6 0
BBX 5 1 0 0
BITMAP
f8
ENDCHAR
STARTCHAR C140
ENCODING 96
SWIDTH 750 0
DWIDTH 6 0
BBX 3 3 1 4
BITMAP
c0
e0
60
ENDCHAR
STARTCHAR C141
ENCODING 97
SWIDTH 750 0
DWIDTH 6 0
BBX 5 5 0 0
BITMAP
78
d8
d8
d8
68
ENDCHAR
STARTCHAR C142
ENCODING 98
SWIDTH 750 0
DWIDTH 6 0
BBX 5 7 0 0
BITMAP
c0
c0
f0
d8
d8
d8
70
ENDCHAR
STARTCHAR C143
ENCODING 99
SWIDTH 750 0
DWIDTH 6 0
BBX 5 5 0 0
BITMAP
78
d8
c0
d8
70
ENDCHAR
STARTCHAR C144
ENCODING 100
SWIDTH 750 0
DWIDTH 6 0
BBX 5 7 0 0
BITMAP
18
18
78
d8
d8
d8
70
ENDCHAR
STARTCHAR C145
ENCODING 101
SWIDTH 750 0
DWIDTH 6 0
BBX 5 5 0 0
BITMAP
70
d8
f8
c0
78
ENDCHAR
STARTCHAR C146
ENCODING 102
SWIDTH 750 0
DWIDTH 6 0
BBX 5 7 0 0
BITMAP
30
68
60
f0
60
60
60
ENDCHAR
STARTCHAR C147
ENCODING 103
SWIDTH 750 0
DWIDTH 6 0
BBX 5 7 0 -2
BITMAP
78
d8
f0
60
f0
d8
70
ENDCHAR
STARTCHAR C150
ENCODING 104
SWIDTH 750 0
DWIDTH 6 0
BBX 5 7 0 0
BITMAP
c0
c0
f0
d8
d8
d8
d8
ENDCHAR
STARTCHAR C151
ENCODING 105
SWIDTH 750 0
DWIDTH 6 0
BBX 5 7 0 0
BITMAP
60
00
e0
60
60
68
30
ENDCHAR
STARTCHAR C152
ENCODING 106
SWIDTH 750 0
DWIDTH 6 0
BBX 4 9 0 -2
BITMAP
30
00
30
30
30
30
30
b0
60
ENDCHAR
STARTCHAR C153
ENCODING 107
SWIDTH 750 0
DWIDTH 6 0
BBX 5 7 0 0
BITMAP
c0
c0
c8
d0
f0
d0
d8
ENDCHAR
STARTCHAR C154
ENCODING 108
SWIDTH 750 0
DWIDTH 6 0
BBX 5 7 0 0
BITMAP
e0
60
60
60
60
68
30
ENDCHAR
STARTCHAR C155
ENCODING 109
SWIDTH 750 0
DWIDTH 6 0
BBX 5 5 0 0
BITMAP
d0
f8
f8
f8
d8
ENDCHAR
STARTCHAR C156
ENCODING 110
SWIDTH 750 0
DWIDTH 6 0
BBX 5 5 0 0
BITMAP
f0
d8
d8
d8
d8
ENDCHAR
STARTCHAR C157
ENCODING 111
SWIDTH 750 0
DWIDTH 6 0
BBX 5 5 0 0
BITMAP
70
d8
d8
d8
70
ENDCHAR
STARTCHAR C160
ENCODING 112
SWIDTH 750 0
DWIDTH 6 0
BBX 5 7 0 -2
BITMAP
70
d8
d8
d8
f0
c0
c0
ENDCHAR
STARTCHAR C161
ENCODING 113
SWIDTH 750 0
DWIDTH 6 0
BBX 5 7 0 -2
BITMAP
70
d8
d8
d8
78
18
18
ENDCHAR
STARTCHAR C162
ENCODING 114
SWIDTH 750 0
DWIDTH 6 0
BBX 5 5 0 0
BITMAP
b8
d8
c0
c0
c0
ENDCHAR
STARTCHAR C163
ENCODING 115
SWIDTH 750 0
DWIDTH 6 0
BBX 5 5 0 0
BITMAP
78
c8
70
98
f0
ENDCHAR
STARTCHAR C164
ENCODING 116
SWIDTH 750 0
DWIDTH 6 0
BBX 5 7 0 0
BITMAP
60
60
f0
60
60
68
30
ENDCHAR
STARTCHAR C165
ENCODING 117
SWIDTH 750 0
DWIDTH 6 0
BBX 5 5 0 0
BITMAP
d8
d8
d8
d8
78
ENDCHAR
STARTCHAR C166
ENCODING 118
SWIDTH 750 0
DWIDTH 6 0
BBX 5 5 0 0
BITMAP
d8
d8
70
70
20
ENDCHAR
STARTCHAR C167
ENCODING 119
SWIDTH 750 0
DWIDTH 6 0
BBX 5 5 0 0
BITMAP
d8
d8
f8
f8
50
ENDCHAR
STARTCHAR C170
ENCODING 120
SWIDTH 750 0
DWIDTH 6 0
BBX 5 5 0 0
BITMAP
d8
f8
70
f8
d8
ENDCHAR
STARTCHAR C171
ENCODING 121
SWIDTH 750 0
DWIDTH 6 0
BBX 5 7 0 -2
BITMAP
d8
d8
d8
d8
78
98
70
ENDCHAR
STARTCHAR C172
ENCODING 122
SWIDTH 750 0
DWIDTH 6 0
BBX 5 5 0 0
BITMAP
f8
98
70
c8
f8
ENDCHAR
STARTCHAR C173
ENCODING 123
SWIDTH 750 0
DWIDTH 6 0
BBX 5 9 0 -1
BITMAP
38
60
60
60
c0
60
60
60
38
ENDCHAR
STARTCHAR C174
ENCODING 124
SWIDTH 750 0
DWIDTH 6 0
BBX 2 9 2 -1
BITMAP
c0
c0
c0
c0
c0
c0
c0
c0
c0
ENDCHAR
STARTCHAR C175
ENCODING 125
SWIDTH 750 0
DWIDTH 6 0
BBX 5 9 0 -1
BITMAP
e0
30
30
30
18
30
30
30
e0
ENDCHAR
STARTCHAR C176
ENCODING 126
SWIDTH 750 0
DWIDTH 6 0
BBX 5 3 0 2
BITMAP
68
f8
b0
ENDCHAR
STARTCHAR C211
ENCODING 137
SWIDTH 750 0
DWIDTH 6 0
BBX 0 0 0 0
BITMAP
ENDCHAR
STARTCHAR C223
ENCODING 147
SWIDTH 750 0
DWIDTH 6 0
BBX 0 0 0 0
BITMAP
ENDCHAR
STARTCHAR C241
ENCODING 161
SWIDTH 750 0
DWIDTH 6 0
BBX 2 7 1 -1
BITMAP
c0
00
c0
c0
c0
c0
c0
ENDCHAR
STARTCHAR C242
ENCODING 162
SWIDTH 750 0
DWIDTH 6 0
BBX 5 7 0 -1
BITMAP
20
70
d8
c0
d8
70
20
ENDCHAR
STARTCHAR C243
ENCODING 163
SWIDTH 750 0
DWIDTH 6 0
BBX 5 7 0 0
BITMAP
30
68
60
f0
60
68
f8
ENDCHAR
STARTCHAR C244
ENCODING 164
SWIDTH 750 0
DWIDTH 6 0
BBX 5 5 0 1
BITMAP
88
70
50
70
88
ENDCHAR
STARTCHAR C245
ENCODING 165
SWIDTH 750 0
DWIDTH 6 0
BBX 5 7 0 0
BITMAP
d8
d8
50
f8
60
f8
60
ENDCHAR
STARTCHAR C246
ENCODING 166
SWIDTH 750 0
DWIDTH 6 0
BBX 2 9 2 -1
BITMAP
c0
c0
c0
c0
00
c0
c0
c0
c0
ENDCHAR
STARTCHAR C247
ENCODING 167
SWIDTH 750 0
DWIDTH 6 0
BBX 5 10 0 -2
BITMAP
70
d8
40
e0
d0
58
38
10
d8
70
ENDCHAR
STARTCHAR C250
ENCODING 168
SWIDTH 750 0
DWIDTH 6 0
BBX 3 1 1 7
BITMAP
a0
ENDCHAR
STARTCHAR C251
ENCODING 169
SWIDTH 750 0
DWIDTH 6 0
BBX 5 7 0 0
BITMAP
70
08
e8
88
e8
08
70
ENDCHAR
STARTCHAR C252
ENCODING 170
SWIDTH 750 0
DWIDTH 6 0
BBX 4 6 0 3
BITMAP
60
90
b0
50
00
f0
ENDCHAR
STARTCHAR C253
ENCODING 171
SWIDTH 750 0
DWIDTH 6 0
BBX 5 3 0 2
BITMAP
48
90
48
ENDCHAR
STARTCHAR C254
ENCODING 172
SWIDTH 750 0
DWIDTH 6 0
BBX 5 2 0 2
BITMAP
f8
08
ENDCHAR
STARTCHAR C255
ENCODING 173
SWIDTH 750 0
DWIDTH 6 0
BBX 3 1 1 3
BITMAP
e0
ENDCHAR
STARTCHAR C256
ENCODING 174
SWIDTH 750 0
DWIDTH 6 0
BBX 5 7 0 0
BITMAP
70
08
68
a8
c8
a8
10
ENDCHAR
STARTCHAR C257
ENCODING 175
SWIDTH 750 0
DWIDTH 6 0
BBX 3 1 1 7
BITMAP
e0
ENDCHAR
STARTCHAR C260
ENCODING 176
SWIDTH 750 0
DWIDTH 6 0
BBX 4 4 0 4
BITMAP
60
90
90
60
ENDCHAR
STARTCHAR C261
ENCODING 177
SWIDTH 750 0
DWIDTH 6 0
BBX 5 7 0 0
BITMAP
20
20
f8
20
20
00
f8
ENDCHAR
STARTCHAR C262
ENCODING 178
SWIDTH 750 0
DWIDTH 6 0
BBX 3 5 1 4
BITMAP
c0
20
40
80
e0
ENDCHAR
STARTCHAR C263
ENCODING 179
SWIDTH 750 0
DWIDTH 6 0
BBX 3 5 1 4
BITMAP
c0
20
c0
20
c0
ENDCHAR
STARTCHAR C264
ENCODING 180
SWIDTH 750 0
DWIDTH 6 0
BBX 3 3 1 5
BITMAP
20
40
80
ENDCHAR
STARTCHAR C265
ENCODING 181
SWIDTH 750 0
DWIDTH 6 0
BBX 5 7 0 -2
BITMAP
d8
d8
d8
d8
e8
c0
c0
ENDCHAR
STARTCHAR C266
ENCODING 182
SWIDTH 750 0
DWIDTH 6 0
BBX 5 8 0 0
BITMAP
78
e8
e8
68
28
28
28
28
ENDCHAR
STARTCHAR C267
ENCODING 183
SWIDTH 750 0
DWIDTH 6 0
BBX 2 2 1 3
BITMAP
c0
c0
ENDCHAR
STARTCHAR C270
ENCODING 184
SWIDTH 750 0
DWIDTH 6 0
BBX 2 3 2 -2
BITMAP
80
40
80
ENDCHAR
STARTCHAR C271
ENCODING 185
SWIDTH 750 0
DWIDTH 6 0
BBX 3 5 1 4
BITMAP
40
c0
40
40
60
ENDCHAR
STARTCHAR C272
ENCODING 186
SWIDTH 750 0
DWIDTH 6 0
BBX 4 6 0 3
BITMAP
60
90
90
60
00
f0
ENDCHAR
STARTCHAR C273
ENCODING 187
SWIDTH 750 0
DWIDTH 6 0
BBX 5 3 0 2
BITMAP
90
48
90
ENDCHAR
STARTCHAR C274
ENCODING 188
SWIDTH 750 0
DWIDTH 6 0
BBX 5 9 0 0
BITMAP
40
c0
48
f0
28
58
b8
08
08
ENDCHAR
STARTCHAR C275
ENCODING 189
SWIDTH 750 0
DWIDTH 6 0
BBX 5 9 0 0
BITMAP
40
c0
48
f0
20
58
a8
10
38
ENDCHAR
STARTCHAR C276
ENCODING 190
SWIDTH 750 0
DWIDTH 6 0
BBX 5 9 0 0
BITMAP
80
40
88
50
a8
58
b8
08
08
ENDCHAR
STARTCHAR C277
ENCODING 191
SWIDTH 750 0
DWIDTH 6 0
BBX 5 7 0 -1
BITMAP
60
00
60
60
d8
d8
70
ENDCHAR
STARTCHAR C300
ENCODING 192
SWIDTH 750 0
DWIDTH 6 0
BBX 5 9 0 0
BITMAP
40
20
70
d8
d8
d8
f8
d8
d8
ENDCHAR
STARTCHAR C301
ENCODING 193
SWIDTH 750 0
DWIDTH 6 0
BBX 5 9 0 0
BITMAP
10
20
70
d8
d8
d8
f8
d8
d8
ENDCHAR
STARTCHAR C302
ENCODING 194
SWIDTH 750 0
DWIDTH 6 0
BBX 5 9 0 0
BITMAP
20
50
70
d8
d8
d8
f8
d8
d8
ENDCHAR
STARTCHAR C303
ENCODING 195
SWIDTH 750 0
DWIDTH 6 0
BBX 5 9 0 0
BITMAP
68
b0
70
d8
d8
d8
f8
d8
d8
ENDCHAR
STARTCHAR C304
ENCODING 196
SWIDTH 750 0
DWIDTH 6 0
BBX 5 9 0 0
BITMAP
50
00
70
d8
d8
d8
f8
d8
d8
ENDCHAR
STARTCHAR C305
ENCODING 197
SWIDTH 750 0
DWIDTH 6 0
BBX 5 9 0 0
BITMAP
20
50
20
70
d8
d8
f8
d8
d8
ENDCHAR
STARTCHAR C306
ENCODING 198
SWIDTH 750 0
DWIDTH 6 0
BBX 5 7 0 0
BITMAP
78
a8
a0
b0
e0
a8
b0
ENDCHAR
STARTCHAR C307
ENCODING 199
SWIDTH 750 0
DWIDTH 6 0
BBX 5 9 0 -2
BITMAP
78
d8
c0
c0
c8
d8
70
10
60
ENDCHAR
STARTCHAR C310
ENCODING 200
SWIDTH 750 0
DWIDTH 6 0
BBX 5 9 0 0
BITMAP
40
20
78
d8
c0
f0
c0
c8
f8
ENDCHAR
STARTCHAR C311
ENCODING 201
SWIDTH 750 0
DWIDTH 6 0
BBX 5 9 0 0
BITMAP
10
20
78
d8
c0
f0
c0
c8
f8
ENDCHAR
STARTCHAR C312
ENCODING 202
SWIDTH 750 0
DWIDTH 6 0
BBX 5 9 0 0
BITMAP
20
50
78
d8
c0
f0
c0
c8
f8
ENDCHAR
STARTCHAR C313
ENCODING 203
SWIDTH 750 0
DWIDTH 6 0
BBX 5 9 0 0
BITMAP
50
00
78
d8
c0
f0
c0
c8
f8
ENDCHAR
STARTCHAR C314
ENCODING 204
SWIDTH 750 0
DWIDTH 6 0
BBX 5 9 0 0
BITMAP
40
20
f8
60
60
60
60
60
f8
ENDCHAR
STARTCHAR C315
ENCODING 205
SWIDTH 750 0
DWIDTH 6 0
BBX 5 9 0 0
BITMAP
10
20
f8
60
60
60
60
60
f8
ENDCHAR
STARTCHAR C316
ENCODING 206
SWIDTH 750 0
DWIDTH 6 0
BBX 5 9 0 0
BITMAP
20
50
f8
60
60
60
60
60
f8
ENDCHAR
STARTCHAR C317
ENCODING 207
SWIDTH 750 0
DWIDTH 6 0
BBX 5 9 0 0
BITMAP
50
00
f8
60
60
60
60
60
f8
ENDCHAR
STARTCHAR C320
ENCODING 208
SWIDTH 750 0
DWIDTH 6 0
BBX 5 7 0 0
BITMAP
70
68
68
f8
68
68
70
ENDCHAR
STARTCHAR C321
ENCODING 209
SWIDTH 750 0
DWIDTH 6 0
BBX 5 9 0 0
BITMAP
68
b0
d8
d8
e8
f8
b8
d8
d8
ENDCHAR
STARTCHAR C322
ENCODING 210
SWIDTH 750 0
DWIDTH 6 0
BBX 5 9 0 0
BITMAP
40
20
70
d8
d8
d8
d8
d8
70
ENDCHAR
STARTCHAR C323
ENCODING 211
SWIDTH 750 0
DWIDTH 6 0
BBX 5 9 0 0
BITMAP
10
20
70
d8
d8
d8
d8
d8
70
ENDCHAR
STARTCHAR C324
ENCODING 212
SWIDTH 750 0
DWIDTH 6 0
BBX 5 9 0 0
BITMAP
20
50
70
d8
d8
d8
d8
d8
70
ENDCHAR
STARTCHAR C325
ENCODING 213
SWIDTH 750 0
DWIDTH 6 0
BBX 5 9 0 0
BITMAP
68
b0
70
d8
d8
d8
d8
d8
70
ENDCHAR
STARTCHAR C326
ENCODING 214
SWIDTH 750 0
DWIDTH 6 0
BBX 5 9 0 0
BITMAP
50
00
70
d8
d8
d8
d8
d8
70
ENDCHAR
STARTCHAR C327
ENCODING 215
SWIDTH 750 0
DWIDTH 6 0
BBX 3 3 1 2
BITMAP
a0
40
a0
ENDCHAR
STARTCHAR C330
ENCODING 216
SWIDTH 750 0
DWIDTH 6 0
BBX 5 7 0 0
BITMAP
78
d8
b8
a8
e8
d8
f0
ENDCHAR
STARTCHAR C331
ENCODING 217
SWIDTH 750 0
DWIDTH 6 0
BBX 5 9 0 0
BITMAP
40
20
d8
d8
d8
d8
d8
d8
70
ENDCHAR
STARTCHAR C332
ENCODING 218
SWIDTH 750 0
DWIDTH 6 0
BBX 5 9 0 0
BITMAP
10
20
d8
d8
d8
d8
d8
d8
70
ENDCHAR
STARTCHAR C333
ENCODING 219
SWIDTH 750 0
DWIDTH 6 0
BBX 5 9 0 0
BITMAP
20
50
00
d8
d8
d8
d8
d8
70
ENDCHAR
STARTCHAR C334
ENCODING 220
SWIDTH 750 0
DWIDTH 6 0
BBX 5 9 0 0
BITMAP
50
00
d8
d8
d8
d8
d8
d8
70
ENDCHAR
STARTCHAR C335
ENCODING 221
SWIDTH 750 0
DWIDTH 6 0
BBX 5 9 0 0
BITMAP
10
20
d8
d8
d0
60
60
60
30
ENDCHAR
STARTCHAR C336
ENCODING 222
SWIDTH 750 0
DWIDTH 6 0
BBX 5 8 0 0
BITMAP
f0
60
70
68
68
70
60
f0
ENDCHAR
STARTCHAR C337
ENCODING 223
SWIDTH 750 0
DWIDTH 6 0
BBX 5 7 0 0
BITMAP
70
d8
d8
d0
c8
d8
d0
ENDCHAR
STARTCHAR C340
ENCODING 224
SWIDTH 750 0
DWIDTH 6 0
BBX 5 8 0 0
BITMAP
40
20
00
78
d8
d8
d8
68
ENDCHAR
STARTCHAR C341
ENCODING 225
SWIDTH 750 0
DWIDTH 6 0
BBX 5 8 0 0
BITMAP
10
20
00
78
d8
d8
d8
68
ENDCHAR
STARTCHAR C342
ENCODING 226
SWIDTH 750 0
DWIDTH 6 0
BBX 5 8 0 0
BITMAP
20
50
00
78
d8
d8
d8
68
ENDCHAR
STARTCHAR C343
ENCODING 227
SWIDTH 750 0
DWIDTH 6 0
BBX 5 8 0 0
BITMAP
68
b0
00
78
d8
d8
d8
68
ENDCHAR
STARTCHAR C344
ENCODING 228
SWIDTH 750 0
DWIDTH 6 0
BBX 5 7 0 0
BITMAP
50
00
78
d8
d8
d8
68
ENDCHAR
STARTCHAR C345
ENCODING 229
SWIDTH 750 0
DWIDTH 6 0
BBX 5 8 0 0
BITMAP
20
50
20
78
d8
d8
d8
68
ENDCHAR
STARTCHAR C346
ENCODING 230
SWIDTH 750 0
DWIDTH 6 0
BBX 5 5 0 0
BITMAP
70
a8
78
a0
d8
ENDCHAR
STARTCHAR C347
ENCODING 231
SWIDTH 750 0
DWIDTH 6 0
BBX 5 7 0 -2
BITMAP
78
d8
c0
d8
70
10
60
ENDCHAR
STARTCHAR C350
ENCODING 232
SWIDTH 750 0
DWIDTH 6 0
BBX 5 8 0 0
BITMAP
40
20
00
70
d8
f8
c0
78
ENDCHAR
STARTCHAR C351
ENCODING 233
SWIDTH 750 0
DWIDTH 6 0
BBX 5 8 0 0
BITMAP
10
20
00
70
d8
f8
c0
78
ENDCHAR
STARTCHAR C352
ENCODING 234
SWIDTH 750 0
DWIDTH 6 0
BBX 5 8 0 0
BITMAP
20
50
00
70
d8
f8
c0
78
ENDCHAR
STARTCHAR C353
ENCODING 235
SWIDTH 750 0
DWIDTH 6 0
BBX 5 7 0 0
BITMAP
50
00
70
d8
f8
c0
78
ENDCHAR
STARTCHAR C354
ENCODING 236
SWIDTH 750 0
DWIDTH 6 0
BBX 5 8 0 0
BITMAP
40
20
00
e0
60
60
68
30
ENDCHAR
STARTCHAR C355
ENCODING 237
SWIDTH 750 0
DWIDTH 6 0
BBX 5 8 0 0
BITMAP
20
40
00
e0
60
60
68
30
ENDCHAR
STARTCHAR C356
ENCODING 238
SWIDTH 750 0
DWIDTH 6 0
BBX 5 8 0 0
BITMAP
40
a0
00
e0
60
60
68
30
ENDCHAR
STARTCHAR C357
ENCODING 239
SWIDTH 750 0
DWIDTH 6 0
BBX 5 7 0 0
BITMAP
a0
00
e0
60
60
68
30
ENDCHAR
STARTCHAR C360
ENCODING 240
SWIDTH 750 0
DWIDTH 6 0
BBX 5 8 0 0
BITMAP
50
20
50
68
d8
d8
d8
70
ENDCHAR
STARTCHAR C361
ENCODING 241
SWIDTH 750 0
DWIDTH 6 0
BBX 5 8 0 0
BITMAP
68
b0
00
f0
d8
d8
d8
d8
ENDCHAR
STARTCHAR C362
ENCODING 242
SWIDTH 750 0
DWIDTH 6 0
BBX 5 8 0 0
BITMAP
40
20
00
70
d8
d8
d8
70
ENDCHAR
STARTCHAR C363
ENCODING 243
SWIDTH 750 0
DWIDTH 6 0
BBX 5 8 0 0
BITMAP
10
20
00
70
d8
d8
d8
70
ENDCHAR
STARTCHAR C364
ENCODING 244
SWIDTH 750 0
DWIDTH 6 0
BBX 5 8 0 0
BITMAP
20
50
00
70
d8
d8
d8
70
ENDCHAR
STARTCHAR C365
ENCODING 245
SWIDTH 750 0
DWIDTH 6 0
BBX 5 7 0 0
BITMAP
70
00
70
d8
d8
d8
70
ENDCHAR
STARTCHAR C366
ENCODING 246
SWIDTH 750 0
DWIDTH 6 0
BBX 5 7 0 0
BITMAP
50
00
70
d8
d8
d8
70
ENDCHAR
STARTCHAR C367
ENCODING 247
SWIDTH 750 0
DWIDTH 6 0
BBX 5 5 0 1
BITMAP
20
00
f8
00
20
ENDCHAR
STARTCHAR C370
ENCODING 248
SWIDTH 750 0
DWIDTH 6 0
BBX 5 5 0 0
BITMAP
78
d8
a8
d8
f0
ENDCHAR
STARTCHAR C371
ENCODING 249
SWIDTH 750 0
DWIDTH 6 0
BBX 5 8 0 0
BITMAP
40
20
00
d8
d8
d8
d8
78
ENDCHAR
STARTCHAR C372
ENCODING 250
SWIDTH 750 0
DWIDTH 6 0
BBX 5 8 0 0
BITMAP
10
20
00
d8
d8
d8
d8
78
ENDCHAR
STARTCHAR C373
ENCODING 251
SWIDTH 750 0
DWIDTH 6 0
BBX 5 8 0 0
BITMAP
20
50
00
d8
d8
d8
d8
78
ENDCHAR
STARTCHAR C374
ENCODING 252
SWIDTH 750 0
DWIDTH 6 0
BBX 5 7 0 0
BITMAP
50
00
d8
d8
d8
d8
78
ENDCHAR
STARTCHAR C375
ENCODING 253
SWIDTH 750 0
DWIDTH 6 0
BBX 5 10 0 -2
BITMAP
10
20
00
d8
d8
d8
d8
78
98
70
ENDCHAR
STARTCHAR C376
ENCODING 254
SWIDTH 750 0
DWIDTH 6 0
BBX 5 6 0 0
BITMAP
c0
f0
d8
d8
f0
c0
ENDCHAR
STARTCHAR C377
ENCODING 255
SWIDTH 750 0
DWIDTH 6 0
BBX 5 9 0 -2
BITMAP
50
00
d8
d8
d8
d8
78
98
70
ENDCHAR
ENDFONT
